<svg width="66" height="66" viewBox="0 0 66 66" fill="none" xmlns="http://www.w3.org/2000/svg">
<path d="M7.91892 14.6533V3.56L1 10.3867V51.3467M7.91892 14.6533V45.3733L1 51.3467M7.91892 14.6533H39.0541M39.7193 57.32L65 31.72V42.8133M39.7193 57.32L32.1351 65H65V58.1733M39.7193 57.32H7.91892L1 51.3467M60.6757 35.9867V14.6533H51.1622M30.4054 35.1333L24.3514 29.16M30.4054 35.1333L20.8919 37.6933L24.2135 29.5M30.4054 35.1333L36.1149 29.5M24.3514 29.16L39.0541 14.6533M24.3514 29.16L24.2135 29.5M44.2432 38.5467H17.4324M55.4865 10.3867L58.9459 6.97333L52.8919 1L49.4324 4.41333M55.4865 10.3867L49.4324 4.41333M55.4865 10.3867L52.027 13.8M49.4324 4.41333L45.973 7.82667M52.027 13.8L45.973 7.82667M52.027 13.8L51.1622 14.6533M45.973 7.82667L39.0541 14.6533M51.1622 14.6533L36.4595 29.16L36.1149 29.5M65 58.1733H62.4054M65 58.1733V53.0533M65 53.0533H62.4054M65 53.0533V47.9333M65 47.9333H62.4054M65 47.9333V42.8133M65 42.8133H62.4054M17.4324 47.5H44.2432M17.4324 29.5H24.2135M44.2432 29.5H36.1149M58.0811 58.1733V47.9333L47.7027 58.1733H58.0811Z" stroke="black"/>
</svg>
