<svg width="66" height="66" viewBox="0 0 66 66" fill="none" xmlns="http://www.w3.org/2000/svg">
<path d="M65 46.7143V19.2857M65 46.7143H28.8261M65 46.7143H60.8261M65 19.2857H28.8261M65 19.2857H57.3478M50.3913 22.551H60.8261V27.1224M5.17391 38.8776V43.449H15.6087M11.4348 5.57143H8.65217V1H28.8261V5.57143H26.0435M11.4348 5.57143L5.17391 19.2857M11.4348 5.57143H26.0435M5.17391 19.2857H1V46.7143H8.65217M5.17391 19.2857H17.6957M5.17391 19.2857V35.6122H11.4348V25.8163L17.6957 19.2857M17.6957 19.2857H28.8261M8.65217 46.7143V50.6327H13.5217M8.65217 46.7143H13.5217M13.5217 50.6327V46.7143M13.5217 50.6327V53.2449H18.3913V51.2857M13.5217 46.7143H18.3913M18.3913 46.7143V51.2857M18.3913 46.7143H23.9565M18.3913 51.2857H23.9565V49.9796M23.9565 46.7143V49.9796M23.9565 46.7143H28.8261M23.9565 49.9796H28.8261V46.7143M28.8261 46.7143H37.1739M28.8261 19.2857L26.0435 5.57143M28.8261 19.2857H37.1739M54.5652 60.4286H57.3478V65H37.1739V60.4286H39.9565M54.5652 60.4286L60.8261 46.7143M54.5652 60.4286H39.9565M60.8261 46.7143H48.3043M60.8261 46.7143V30.3878H54.5652V40.1837L48.3043 46.7143M48.3043 46.7143H37.1739M57.3478 19.2857V15.3673H52.4783M57.3478 19.2857H52.4783M52.4783 15.3673V19.2857M52.4783 15.3673V12.7551H47.6087V14.7143M52.4783 19.2857H47.6087M47.6087 19.2857V14.7143M47.6087 19.2857H42.0435M47.6087 14.7143H42.0435V16.0204M42.0435 19.2857V16.0204M42.0435 19.2857H37.1739M42.0435 16.0204H37.1739V19.2857M37.1739 46.7143L39.9565 60.4286M30.2174 40.4898V36.5714M30.2174 33.9592V26.1224H34.3913L37.1739 28.0816V32L34.3913 33.9592H30.2174ZM30.2174 33.9592H27.4348M30.2174 33.9592V36.5714M30.2174 36.5714H27.4348M30.2174 36.5714H34.3913" stroke="black"/>
</svg>
