<svg width="66" height="64" viewBox="0 0 66 64" fill="none" xmlns="http://www.w3.org/2000/svg">
<path d="M2.77778 50.0822H1V56H65V50.0822H63.2222M2.77778 50.0822V8H63.2222V50.0822M2.77778 50.0822H63.2222M18.7778 39.5616V25.7534H47.2222V39.5616M18.7778 39.5616C20.358 38.2466 23.2815 34.4329 22.3333 29.6986L25.2963 34.9589C26.2804 34.1639 26.7236 33.6516 27.0741 32.3288L28.2593 34.3014C29.0608 33.5332 29.0232 33.1591 30.037 32.3288C30.7815 33.5839 31.1737 34.3189 32.4074 35.6164C34.1079 33.1356 34.4047 31.6682 34.7778 29.0411C35.4975 30.5701 35.8212 31.1658 37.1481 31.6712L38.9259 30.3562C39.0656 32.5306 39.5174 33.4957 40.7037 34.9589L43.6667 30.3562C44.0289 34.612 45.0754 36.4632 47.2222 39.5616M18.7778 39.5616H29.4444M47.2222 39.5616H36.5556M29.4444 39.5616C28.4945 38.5405 27.6509 38.1736 27.6667 37.589M29.4444 39.5616H36.5556M36.5556 39.5616C37.2798 38.5198 37.6623 37.9367 37.7407 36.9315M12.8519 43.5068H53.1481V21.8082H12.8519V43.5068Z" stroke="black"/>
</svg>
