<svg width="65" height="64" viewBox="0 0 65 64" fill="none" xmlns="http://www.w3.org/2000/svg">
<path d="M0 37.2H39.5636C45.3476 37.2 50.0364 41.8562 50.0364 47.6C50.0364 53.3438 45.3476 58 39.5636 58C36.1899 58 33.1887 56.4158 31.2734 53.9556M0 32.5778H50.6182C58.0088 32.5778 64 26.6281 64 19.2889C64 11.9496 58.0088 6 50.6182 6C46.3773 6 42.5972 7.95905 40.1455 11.0156M0 27.9556H27.3455C31.5227 27.9556 34.9091 24.5927 34.9091 20.4444C34.9091 16.2962 31.5227 12.9333 27.3455 12.9333C24.9236 12.9333 22.7675 14.0637 21.3832 15.8222" stroke="black"/>
</svg>
