<svg width="154" height="40" viewBox="0 0 154 40" fill="none" xmlns="http://www.w3.org/2000/svg">
<path d="M0 40.0001L3.72881 19.6611H10.8475L12.5424 27.7967L17.9661 19.6611H24.7458L21.0169 40.0001H14.5763L16.6102 28.8137L10.1695 36.6103L6.44068 28.8137L4.0678 40.0001H0Z" fill="#454547"/>
<path d="M25.7627 24.4069L22.7119 40.0001H34.2373L34.5763 37.6272H27.7966L28.4746 33.5594H34.2373L34.5763 30.8476H28.8136L29.4915 27.1188H36.2712L36.6102 24.4069H25.7627Z" fill="#454547"/>
<path d="M38.3051 24.4069L35.9322 40.0001H40.339L41.3707 33.2205H45.7627L44.7458 40.0001H49.1525L51.5254 24.4069H47.1186L46.1901 30.5086H41.7833L42.7119 24.4069H38.3051Z" fill="#454547"/>
<path fill-rule="evenodd" clip-rule="evenodd" d="M50.5085 40.0001H53.8983L55.2542 37.6272H60.678L61.3559 40.0001H66.1017L62.7119 24.4069H58.983L50.5085 40.0001ZM60 35.2544H56.2712L58.983 30.5086L60 35.2544Z" fill="#454547"/>
<path d="M67.4576 40.0001L70.1695 24.4069H75.5932L78.6441 33.2205L80.339 24.4069H83.7288L81.0169 40.0001H75.9322L72.4982 30.5086L70.8475 40.0001H67.4576Z" fill="#454547"/>
<path d="M85.7627 24.4069L83.0508 40.0001H87.4576L90.1695 24.4069H85.7627Z" fill="#454547"/>
<path d="M89.1525 40.0001L91.8644 24.4069H96.6102L95.49 30.8476L102.034 24.4069H106.102L98.983 31.5255L103.729 40.0001H99.322L96.6102 34.2374L94.5763 36.2713L93.8983 40.0001H89.1525Z" fill="#454547"/>
<path d="M108.475 24.4069L105.424 40.0001H116.949L117.288 37.6272H110.508L111.186 33.5594H116.949L117.288 30.8476H111.525L112.203 27.1188H118.983L119.322 24.4069H108.475Z" fill="#454547"/>
<path d="M121.356 24.4069L118.644 40.0001H122.034L123.685 30.5086L127.119 40.0001H131.186L134.576 22.373L131.186 26.1018L129.831 33.2205L126.78 24.4069H121.356Z" fill="#454547"/>
<path d="M134.576 22.373L131.186 40.0001H135.254L137.288 29.8306L141.017 40.0001H147.119L150.169 22.373H146.102L144.407 31.8645L140.678 22.373H134.576Z" fill="black"/>
<path d="M135.759 7.11864C137.454 11.1864 146.268 16.9492 149.996 19.661C146.592 18.6441 144.573 18.9831 138.118 19.661C131.242 20.3832 126.607 7.45763 130.674 0C131.804 1.12994 134.064 2.71186 138.81 2.37288C143.556 2.0339 149.678 1.79 152.03 6.1017C154.064 9.83051 153.725 19.661 144.573 14.9153C141.861 13.6954 137.906 9.37853 135.759 7.11864Z" fill="#5FBE47"/>
</svg>
