<svg width="66" height="65" viewBox="0 0 66 65" fill="none" xmlns="http://www.w3.org/2000/svg">
<path d="M7.91892 13.6533V10.8332C7.91892 7.76237 4.21568 6.21386 2.02972 8.37067V8.37067C1.37088 9.02073 1 9.90769 1 10.8332V50.3467M7.91892 13.6533V42.0844C7.91892 43.5378 7.2865 44.9193 6.18636 45.8691L1 50.3467M7.91892 13.6533H39.0541M39.7193 56.32L57.2052 38.6132C60.0659 35.7164 65 37.7421 65 41.8133V41.8133M39.7193 56.32V56.32C36.9053 59.1696 38.9239 64 42.9288 64H60C62.7614 64 65 61.7614 65 59V57.1733M39.7193 56.32H9.77866C8.57898 56.32 7.41929 55.8887 6.51122 55.1047L1 50.3467M60.6757 34.9867V18.6533C60.6757 15.8919 58.4371 13.6533 55.6757 13.6533H51.1622M30.4054 34.1333L24.3514 28.16M30.4054 34.1333L22.8342 36.1707C22.0364 36.3854 21.3372 35.5949 21.6476 34.8293L24.2135 28.5M30.4054 34.1333L36.1149 28.5M24.3514 28.16L39.0541 13.6533M24.3514 28.16L24.2135 28.5M44.2432 37.5467H17.4324M55.4865 9.38667L55.8783 9.00009C57.5658 7.33507 57.5658 4.6116 55.8783 2.94658V2.94658C54.2225 1.31287 51.5613 1.31287 49.9055 2.94658L49.4324 3.41333M55.4865 9.38667L49.4324 3.41333M55.4865 9.38667L52.027 12.8M49.4324 3.41333L45.973 6.82667M52.027 12.8L45.973 6.82667M52.027 12.8L51.1622 13.6533M45.973 6.82667L39.0541 13.6533M51.1622 13.6533L36.4595 28.16L36.1149 28.5M65 57.1733H62.4054M65 57.1733V52.0533M65 52.0533H62.4054M65 52.0533V46.9333M65 46.9333H62.4054M65 46.9333V41.8133M65 41.8133H62.4054M17.4324 46.5H44.2432M17.4324 28.5H24.2135M44.2432 28.5H36.1149M58.0811 54.154V54.154C58.0811 51.4738 54.849 50.1223 52.9411 52.0047V52.0047C51.0194 53.9009 52.362 57.1733 55.0618 57.1733V57.1733C56.7293 57.1733 58.0811 55.8215 58.0811 54.154Z" stroke="white" stroke-width="2" stroke-linecap="round"/>
</svg>
