<svg width="66" height="66" viewBox="0 0 66 66" fill="none" xmlns="http://www.w3.org/2000/svg">
<path d="M50.3913 22.551H58.8261C59.9307 22.551 60.8261 23.4465 60.8261 24.551V27.1224M5.17391 38.8776V41.449C5.17391 42.5535 6.06934 43.449 7.17391 43.449H15.6087M11.4348 5.57143H10.6522C9.54761 5.57143 8.65217 4.676 8.65217 3.57143V3C8.65217 1.89543 9.5476 1 10.6522 1H26.8261C27.9307 1 28.8261 1.89543 28.8261 3V3.57143C28.8261 4.676 27.9307 5.57143 26.8261 5.57143H26.0435M11.4348 5.57143L5.17391 19.2857M11.4348 5.57143H26.0435M5.17391 19.2857H3C1.89543 19.2857 1 20.1811 1 21.2857V44.7143C1 45.8189 1.89543 46.7143 3 46.7143H8.65217M5.17391 19.2857H17.6957M5.17391 19.2857V33.6122C5.17391 34.7168 6.06934 35.6122 7.17391 35.6122H9.43478C10.5394 35.6122 11.4348 34.7168 11.4348 33.6122V26.6202C11.4348 26.1043 11.6341 25.6084 11.9911 25.2361L17.6957 19.2857M17.6957 19.2857H28.8261M8.65217 46.7143V48.6327C8.65217 49.7372 9.54761 50.6327 10.6522 50.6327H13.5217M8.65217 46.7143H13.5217M13.5217 50.6327V46.7143M13.5217 50.6327V51.2449C13.5217 52.3495 14.4172 53.2449 15.5217 53.2449H16.4321C17.5141 53.2449 18.3913 52.3677 18.3913 51.2857V51.2857M13.5217 46.7143H18.3913M18.3913 46.7143V51.2857M18.3913 46.7143H23.9565M18.3913 51.2857H22.6504C23.3718 51.2857 23.9565 50.7009 23.9565 49.9796V49.9796M23.9565 46.7143V49.9796M23.9565 46.7143H28.8261M23.9565 49.9796H26.8261C27.9307 49.9796 28.8261 49.0842 28.8261 47.9796V46.7143M28.8261 46.7143H37.1739M28.8261 19.2857L26.0435 5.57143M28.8261 19.2857H37.1739M54.5652 60.4286H55.3478C56.4524 60.4286 57.3478 61.324 57.3478 62.4286V63C57.3478 64.1046 56.4524 65 55.3478 65H39.1739C38.0693 65 37.1739 64.1046 37.1739 63V62.4286C37.1739 61.324 38.0693 60.4286 39.1739 60.4286H39.9565M54.5652 60.4286L60.8261 46.7143M54.5652 60.4286H39.9565M60.8261 46.7143H63C64.1046 46.7143 65 45.8189 65 44.7143V21.2857C65 20.1811 64.1046 19.2857 63 19.2857H57.3478M60.8261 46.7143H48.3043M60.8261 46.7143V32.3878C60.8261 31.2832 59.9307 30.3878 58.8261 30.3878H56.5652C55.4607 30.3878 54.5652 31.2832 54.5652 32.3878V39.3798C54.5652 39.8957 54.3659 40.3916 54.0089 40.7639L48.3043 46.7143M48.3043 46.7143H37.1739M57.3478 19.2857V17.3673C57.3478 16.2628 56.4524 15.3673 55.3478 15.3673H52.4783M57.3478 19.2857H52.4783M52.4783 15.3673V19.2857M52.4783 15.3673V14.7551C52.4783 13.6505 51.5828 12.7551 50.4783 12.7551H49.5679C48.4859 12.7551 47.6087 13.6323 47.6087 14.7143V14.7143M52.4783 19.2857H47.6087M47.6087 19.2857V14.7143M47.6087 19.2857H42.0435M47.6087 14.7143H43.3496C42.6283 14.7143 42.0435 15.2991 42.0435 16.0204V16.0204M42.0435 19.2857V16.0204M42.0435 19.2857H37.1739M42.0435 16.0204H39.1739C38.0693 16.0204 37.1739 16.9158 37.1739 18.0204V19.2857M37.1739 46.7143L39.9565 60.4286M30.2174 40.4898V36.5714M30.2174 33.9592V28.1224C30.2174 27.0179 31.1128 26.1224 32.2174 26.1224H33.7579C34.1701 26.1224 34.5722 26.2498 34.9093 26.4871L36.3253 27.4841C36.8574 27.8588 37.1739 28.4688 37.1739 29.1195V30.9622C37.1739 31.6129 36.8574 32.2229 36.3253 32.5975L34.9093 33.5945C34.5722 33.8318 34.1701 33.9592 33.7579 33.9592H30.2174ZM30.2174 33.9592H27.4348M30.2174 33.9592V36.5714M30.2174 36.5714H27.4348M30.2174 36.5714H34.3913" stroke="white" stroke-width="1.5" stroke-linecap="round"/>
</svg>
