<svg width="226" height="189" viewBox="0 0 226 189" fill="none" xmlns="http://www.w3.org/2000/svg">
<path d="M26.9459 -0.799995V-30.4426C26.9459 -34.8809 21.5936 -37.119 18.4342 -34.0018L2.48827 -18.2684C1.53604 -17.3289 1 -16.0469 1 -14.7092V136.8M26.9459 -0.799995V112.111C26.9459 113.564 26.3135 114.946 25.2134 115.896L1 136.8M26.9459 -0.799995H143.703M146.198 159.2L232.442 71.8658C235.583 68.6854 241 70.9094 241 75.379V104.8M146.198 159.2L126.164 179.487C123.044 182.645 125.282 188 129.721 188H236C238.761 188 241 185.761 241 183V162.4M146.198 159.2H28.8057C27.606 159.2 26.4463 158.769 25.5382 157.985L1 136.8M224.784 79.2V4.2C224.784 1.43858 222.545 -0.799995 219.784 -0.799995H189.108M111.27 76L88.5676 53.6M111.27 76L77.5369 85.0774C76.7391 85.292 76.0399 84.5016 76.3503 83.736L88.0507 54.875M111.27 76L132.681 54.875M88.5676 53.6L143.703 -0.799995M88.5676 53.6L88.0507 54.875M163.162 88.8H62.6216M205.324 -16.8L214.69 -26.0408C216.674 -27.9987 216.674 -31.2013 214.69 -33.1592L199.106 -48.5351C197.159 -50.4562 194.03 -50.4562 192.083 -48.5351L182.622 -39.2M205.324 -16.8L182.622 -39.2M205.324 -16.8L192.351 -4M182.622 -39.2L169.649 -26.4M192.351 -4L169.649 -26.4M192.351 -4L189.108 -0.799995M169.649 -26.4L143.703 -0.799995M189.108 -0.799995L133.973 53.6L132.681 54.875M241 162.4H231.27M241 162.4V143.2M241 143.2H231.27M241 143.2V124M241 124H231.27M241 124V104.8M241 104.8H231.27M62.6216 122.375H163.162M62.6216 54.875H88.0507M163.162 54.875H132.681M215.054 157.4V135.957C215.054 131.519 209.702 129.281 206.542 132.398L184.81 153.841C181.628 156.981 183.851 162.4 188.322 162.4H210.054C212.815 162.4 215.054 160.161 215.054 157.4Z" stroke="#1E1E1E" stroke-width="2" stroke-linecap="round"/>
</svg>
