<svg width="66" height="54" viewBox="0 0 66 54" fill="none" xmlns="http://www.w3.org/2000/svg">
<path d="M5.76596 9.21053V3C5.76596 1.89543 6.66139 1 7.76596 1H58.234C59.3386 1 60.234 1.89543 60.234 3V9.21053M5.76596 9.21053H60.234M5.76596 9.21053V11.2632M60.234 9.21053V11.2632M9.17021 17.4211H7.76596C6.66139 17.4211 5.76596 16.5256 5.76596 15.4211V11.2632M9.17021 17.4211V51C9.17021 52.1046 10.0656 53 11.1702 53H54.8298C55.9344 53 56.8298 52.1046 56.8298 51V17.4211M9.17021 17.4211H56.8298M56.8298 17.4211H58.234C59.3386 17.4211 60.234 16.5256 60.234 15.4211V11.2632M44.5745 40V38.5789C44.5745 37.4744 43.679 36.5789 42.5745 36.5789H23.4255C22.321 36.5789 21.4255 37.4744 21.4255 38.5789V40M44.5745 40V41.4211C44.5745 42.5256 43.679 43.4211 42.5745 43.4211H23.4255C22.321 43.4211 21.4255 42.5256 21.4255 41.4211V40M44.5745 40H49.8708C50.403 40 50.9132 39.7879 51.2885 39.4107L64.4177 26.2168C64.7906 25.842 65 25.3348 65 24.806V15.7105C65 15.0662 64.6896 14.4614 64.1663 14.0857L60.234 11.2632M21.4255 40H16.1292C15.597 40 15.0868 39.7879 14.7115 39.4107L1.58231 26.2168C1.20936 25.842 1 25.3348 1 24.806V15.7105C1 15.0662 1.31035 14.4614 1.83373 14.0857L5.76596 11.2632" stroke="white" stroke-width="1.5"/>
</svg>
