<svg width="66" height="53" viewBox="0 0 66 53" fill="none" xmlns="http://www.w3.org/2000/svg">
<path d="M1 31.72H40.5636C46.3476 31.72 51.0364 36.3046 51.0364 41.96C51.0364 47.6154 46.3476 52.2 40.5636 52.2C37.1899 52.2 34.1887 50.6401 32.2734 48.2178M1 27.1689H51.6182C59.0088 27.1689 65 21.3108 65 14.0844C65 6.85811 59.0088 1 51.6182 1C47.3773 1 43.5972 2.92891 41.1455 5.93839M1 22.6178H28.3455C32.5227 22.6178 35.9091 19.3067 35.9091 15.2222C35.9091 11.1378 32.5227 7.82667 28.3455 7.82667C25.9236 7.82667 23.7675 8.93968 22.3832 10.6711" stroke="white" stroke-width="1.5" stroke-linecap="round"/>
</svg>
