<svg width="66" height="53" viewBox="0 0 66 53" fill="none" xmlns="http://www.w3.org/2000/svg">
<path d="M56.7037 22.2293L44.8519 9.74146M54.6 13.6031L49.8593 8.60795M2 52.2H64C64.5523 52.2 65 51.7523 65 51.2V2C65 1.44772 64.5523 1 64 1H2C1.44772 1 1 1.44772 1 2V51.2C1 51.7523 1.44772 52.2 2 52.2ZM5.55556 48.4537H60.4444C60.9967 48.4537 61.4444 48.0059 61.4444 47.4537V5.74634C61.4444 5.19406 60.9967 4.74634 60.4444 4.74634H5.55556C5.00327 4.74634 4.55556 5.19406 4.55556 5.74634V47.4537C4.55556 48.0059 5.00327 48.4537 5.55556 48.4537Z" stroke="white" stroke-width="1.5" stroke-linecap="round"/>
</svg>
